<?xml version="1.0" encoding="UTF-8"?>
<svg xmlns="http://www.w3.org/2000/svg" xmlns:xlink="http://www.w3.org/1999/xlink" width="28px" height="25px" viewBox="0 0 28 25" version="1.1">
<g id="surface1">
<path style=" stroke:none;fill-rule:nonzero;fill:rgb(0%,0%,0%);fill-opacity:1;" d="M 2.222656 0.125 C 2.132812 0.199219 2.054688 0.28125 2.046875 0.308594 C 2.039062 0.335938 2.027344 0.722656 2.015625 1.171875 C 2.003906 1.621094 1.988281 1.992188 1.984375 2 C 1.976562 2.007812 1.609375 2.019531 1.164062 2.03125 C 0.28125 2.050781 0.269531 2.054688 0.101562 2.226562 L 0.015625 2.316406 L 0.00390625 11.117188 C 0 15.953125 0.00390625 20.320312 0.0195312 20.8125 C 0.0429688 21.699219 0.046875 21.71875 0.113281 21.808594 C 0.148438 21.859375 0.210938 21.917969 0.253906 21.933594 C 0.34375 21.964844 2.527344 22 7.328125 22.042969 C 10.714844 22.074219 11.207031 22.089844 11.601562 22.171875 C 11.851562 22.222656 12.332031 22.445312 12.582031 22.625 C 13.101562 23 13.410156 23.535156 13.484375 24.195312 C 13.53125 24.59375 13.589844 24.804688 13.6875 24.886719 C 13.835938 25.011719 14.148438 25.015625 14.304688 24.894531 C 14.410156 24.8125 14.449219 24.695312 14.5 24.3125 C 14.523438 24.125 14.558594 23.90625 14.574219 23.832031 C 14.621094 23.628906 14.796875 23.257812 14.945312 23.0625 C 15.261719 22.644531 15.921875 22.265625 16.558594 22.140625 C 17.019531 22.054688 17.773438 22.039062 22.570312 22.015625 C 25.980469 21.996094 27.464844 21.980469 27.585938 21.957031 C 27.777344 21.921875 27.867188 21.875 27.921875 21.78125 C 27.988281 21.648438 28.003906 19.554688 27.996094 10.988281 L 27.984375 2.316406 L 27.898438 2.226562 C 27.730469 2.054688 27.71875 2.050781 26.835938 2.03125 C 26.394531 2.019531 26.027344 2.007812 26.015625 2 C 26.011719 1.992188 25.996094 1.605469 25.984375 1.144531 L 25.964844 0.300781 L 25.808594 0.15625 L 25.652344 0.0078125 L 20.777344 0.0234375 L 15.898438 0.0351562 L 15.621094 0.144531 C 14.996094 0.394531 14.710938 0.582031 14.285156 1.03125 L 14.011719 1.320312 L 13.652344 0.984375 C 13.460938 0.792969 13.234375 0.59375 13.152344 0.539062 C 12.816406 0.292969 12.28125 0.105469 11.777344 0.0585938 C 11.605469 0.0429688 9.46875 0.0234375 6.929688 0.0117188 L 2.386719 -0.0078125 Z M 12.273438 1.15625 C 12.785156 1.410156 13.078125 1.703125 13.34375 2.230469 L 13.476562 2.5 L 13.496094 11.304688 C 13.515625 19.902344 13.515625 20.105469 13.460938 20.066406 C 12.910156 19.660156 12.644531 19.519531 12.097656 19.339844 C 11.238281 19.054688 11.175781 19.054688 6.453125 19.023438 L 3 19.003906 L 3 0.992188 L 7.507812 1.007812 L 12.015625 1.027344 Z M 19.027344 4.355469 L 19.027344 7.707031 L 19.109375 7.78125 C 19.332031 7.992188 19.496094 8.046875 19.652344 7.964844 C 19.773438 7.902344 20.035156 7.609375 20.441406 7.082031 C 20.640625 6.820312 20.851562 6.554688 20.910156 6.488281 L 21.015625 6.367188 L 21.480469 6.964844 C 22.015625 7.664062 22.144531 7.8125 22.296875 7.925781 C 22.476562 8.054688 22.621094 8.023438 22.882812 7.800781 L 22.972656 7.722656 L 22.972656 1 L 25 1 L 25 19.003906 L 21.292969 19.023438 C 18.921875 19.03125 17.46875 19.050781 17.257812 19.070312 C 16.25 19.167969 15.300781 19.484375 14.75 19.910156 C 14.644531 19.992188 14.539062 20.066406 14.519531 20.082031 C 14.492188 20.097656 14.488281 18.375 14.503906 11.300781 L 14.523438 2.5 L 14.644531 2.246094 C 14.910156 1.679688 15.332031 1.285156 15.855469 1.113281 C 16.105469 1.027344 16.421875 1.007812 17.851562 1.007812 L 19.027344 1 Z M 22.046875 3.292969 C 22.039062 4.558594 22.019531 5.675781 22.007812 5.785156 C 21.988281 6.019531 21.996094 6.023438 21.675781 5.59375 C 21.542969 5.417969 21.386719 5.230469 21.332031 5.175781 C 21.238281 5.085938 21.207031 5.074219 21.035156 5.066406 C 20.75 5.050781 20.75 5.050781 20.195312 5.761719 L 20.015625 5.988281 L 19.996094 5.789062 C 19.984375 5.679688 19.976562 4.558594 19.972656 3.292969 L 19.972656 1 L 22.066406 1 Z M 1.808594 2.992188 L 2 3.011719 L 2 9.003906 C 2.003906 12.300781 2.015625 16.054688 2.027344 17.347656 C 2.054688 19.949219 2.039062 19.796875 2.238281 19.917969 C 2.324219 19.96875 2.496094 19.972656 6.015625 19.992188 C 10.675781 20.015625 11.09375 20.035156 11.71875 20.230469 C 12.230469 20.390625 12.601562 20.609375 12.914062 20.929688 C 13.195312 21.214844 13.382812 21.582031 13.441406 21.953125 L 13.460938 22.082031 L 13.339844 21.988281 C 12.769531 21.558594 12.207031 21.324219 11.355469 21.15625 C 10.886719 21.0625 9.945312 21.046875 5.144531 21.046875 L 0.960938 21.042969 L 0.976562 12.046875 C 0.988281 3.308594 0.992188 3.050781 1.042969 3.011719 C 1.101562 2.96875 1.46875 2.960938 1.808594 2.992188 Z M 27.027344 12.007812 L 27.027344 21.042969 L 22.722656 21.042969 C 18.351562 21.042969 17.21875 21.0625 16.675781 21.144531 C 16.007812 21.242188 15.28125 21.535156 14.765625 21.914062 C 14.652344 21.996094 14.550781 22.0625 14.546875 22.058594 C 14.539062 22.050781 14.558594 21.953125 14.582031 21.835938 C 14.757812 21.050781 15.441406 20.433594 16.421875 20.183594 C 17.039062 20.023438 16.921875 20.027344 22.542969 19.988281 C 25.214844 19.96875 25.574219 19.960938 25.703125 19.917969 C 25.785156 19.890625 25.867188 19.851562 25.886719 19.824219 C 25.953125 19.746094 25.964844 18.75 25.984375 10.871094 C 25.996094 6.683594 26.007812 3.199219 26.019531 3.128906 C 26.027344 3.046875 26.050781 3 26.082031 2.992188 C 26.109375 2.984375 26.332031 2.980469 26.578125 2.976562 L 27.027344 2.972656 Z M 27.027344 12.007812 "/>
<path style=" stroke:none;fill-rule:nonzero;fill:rgb(0%,0%,0%);fill-opacity:1;" d="M 7.695312 4.027344 C 7.296875 4.046875 7.285156 4.050781 7.203125 4.128906 C 6.953125 4.367188 6.972656 4.71875 7.25 4.90625 C 7.371094 4.988281 7.824219 5.019531 8.496094 4.992188 C 9.066406 4.96875 9.230469 4.941406 9.351562 4.832031 C 9.433594 4.757812 9.441406 4.734375 9.453125 4.542969 C 9.457031 4.410156 9.445312 4.304688 9.421875 4.261719 C 9.371094 4.164062 9.226562 4.070312 9.09375 4.050781 C 8.898438 4.019531 8.109375 4.007812 7.695312 4.027344 Z M 7.695312 4.027344 "/>
<path style=" stroke:none;fill-rule:nonzero;fill:rgb(0%,0%,0%);fill-opacity:1;" d="M 5.523438 7.058594 C 5.296875 7.074219 5.25 7.085938 5.183594 7.148438 C 5.085938 7.238281 5.027344 7.375 5.027344 7.519531 C 5.027344 7.675781 5.082031 7.773438 5.246094 7.90625 L 5.378906 8.015625 L 11.214844 7.976562 L 11.324219 7.855469 C 11.53125 7.617188 11.527344 7.414062 11.3125 7.164062 L 11.195312 7.035156 L 8.492188 7.039062 C 7.003906 7.042969 5.667969 7.050781 5.523438 7.058594 Z M 5.523438 7.058594 "/>
<path style=" stroke:none;fill-rule:nonzero;fill:rgb(0%,0%,0%);fill-opacity:1;" d="M 5.195312 10.140625 C 5.070312 10.265625 5.027344 10.367188 5.027344 10.523438 C 5.027344 10.664062 5.078125 10.761719 5.214844 10.894531 L 5.316406 10.992188 L 8.164062 10.992188 C 11.277344 10.992188 11.152344 11 11.335938 10.828125 C 11.507812 10.664062 11.519531 10.414062 11.367188 10.203125 C 11.25 10.046875 11.355469 10.050781 8.214844 10.042969 L 5.300781 10.03125 Z M 5.195312 10.140625 "/>
<path style=" stroke:none;fill-rule:nonzero;fill:rgb(0%,0%,0%);fill-opacity:1;" d="M 5.191406 13.148438 C 4.96875 13.398438 4.964844 13.621094 5.1875 13.863281 L 5.292969 13.980469 L 11.222656 13.980469 L 11.3125 13.882812 C 11.503906 13.660156 11.527344 13.511719 11.398438 13.261719 C 11.285156 13.039062 11.542969 13.058594 8.25 13.042969 L 5.300781 13.027344 Z M 5.191406 13.148438 "/>
<path style=" stroke:none;fill-rule:nonzero;fill:rgb(0%,0%,0%);fill-opacity:1;" d="M 5.277344 16.082031 C 5.15625 16.144531 5.089844 16.238281 5.054688 16.402344 C 5.027344 16.527344 5.027344 16.570312 5.070312 16.675781 C 5.09375 16.746094 5.15625 16.84375 5.210938 16.894531 L 5.304688 16.984375 L 8.230469 16.976562 C 11.558594 16.96875 11.277344 16.988281 11.410156 16.71875 C 11.496094 16.546875 11.503906 16.484375 11.441406 16.324219 C 11.367188 16.140625 11.269531 16.09375 10.933594 16.066406 C 10.773438 16.054688 9.453125 16.042969 8 16.039062 C 5.730469 16.039062 5.347656 16.046875 5.277344 16.082031 Z M 5.277344 16.082031 "/>
<path style=" stroke:none;fill-rule:nonzero;fill:rgb(0%,0%,0%);fill-opacity:1;" d="M 16.960938 10.0625 C 16.792969 10.082031 16.757812 10.09375 16.671875 10.179688 C 16.558594 10.289062 16.5 10.457031 16.527344 10.597656 C 16.550781 10.722656 16.71875 10.90625 16.851562 10.957031 C 16.9375 10.984375 17.539062 10.992188 19.835938 10.992188 L 22.714844 10.992188 L 22.789062 10.90625 C 23.023438 10.628906 23.027344 10.371094 22.804688 10.140625 L 22.703125 10.035156 L 19.929688 10.039062 C 18.40625 10.042969 17.070312 10.050781 16.960938 10.0625 Z M 16.960938 10.0625 "/>
<path style=" stroke:none;fill-rule:nonzero;fill:rgb(0%,0%,0%);fill-opacity:1;" d="M 16.660156 13.183594 C 16.46875 13.425781 16.472656 13.636719 16.6875 13.875 L 16.777344 13.980469 L 22.707031 13.980469 L 22.8125 13.863281 C 23.03125 13.621094 23.03125 13.398438 22.8125 13.15625 L 22.707031 13.039062 L 16.777344 13.039062 Z M 16.660156 13.183594 "/>
<path style=" stroke:none;fill-rule:nonzero;fill:rgb(0%,0%,0%);fill-opacity:1;" d="M 16.957031 16.066406 C 16.695312 16.105469 16.585938 16.195312 16.53125 16.417969 C 16.503906 16.53125 16.5625 16.734375 16.652344 16.839844 L 16.730469 16.933594 L 17.199219 16.957031 C 17.460938 16.96875 18.804688 16.980469 20.1875 16.980469 L 22.703125 16.984375 L 22.804688 16.875 C 23.027344 16.652344 23.027344 16.410156 22.808594 16.140625 L 22.730469 16.039062 L 19.914062 16.042969 C 18.367188 16.046875 17.035156 16.058594 16.957031 16.066406 Z M 16.957031 16.066406 "/>
</g>
</svg>
